<svg xmlns="http://www.w3.org/2000/svg" viewBox="0 0 24 25" fill="none">
  <path d="M18.5667 10.5227H13.9333V5.88939C13.9333 5.37664 13.7296 4.88489 13.3671 4.52232C13.0045 4.15974 12.5128 3.95605 12 3.95605C11.4872 3.95605 10.9955 4.15974 10.6329 4.52232C10.2704 4.88489 10.0667 5.37664 10.0667 5.88939V10.5227H5.43333C4.92058 10.5227 4.42883 10.7264 4.06626 11.089C3.70369 11.4516 3.5 11.9433 3.5 12.4561C3.5 12.9688 3.70369 13.4606 4.06626 13.8231C4.42883 14.1857 4.92058 14.3894 5.43333 14.3894H10.0667V19.0227C10.0667 19.5355 10.2704 20.0272 10.6329 20.3898C10.9955 20.7524 11.4872 20.9561 12 20.9561C12.5128 20.9561 13.0045 20.7524 13.3671 20.3898C13.7296 20.0272 13.9333 19.5355 13.9333 19.0227V14.3894H18.5667C19.0794 14.3894 19.5712 14.1857 19.9337 13.8231C20.2963 13.4606 20.5 12.9688 20.5 12.4561C20.5 11.9433 20.2963 11.4516 19.9337 11.089C19.5712 10.7264 19.0794 10.5227 18.5667 10.5227Z" fill="currentColor"/>
</svg>